<svg width="212" height="38" viewBox="0 0 212 38" fill="none" xmlns="http://www.w3.org/2000/svg">
<path d="M126.528 20.4523V24.8182H152.621C153.352 14.1241 146.498 8.16021 138.044 8.16021C129.59 8.16021 123.467 14.1976 123.467 22.5617C123.467 30.9994 129.807 37.1103 138.479 37.1103C145.55 37.1103 150.87 32.7444 152.327 27.7266H146.716C145.333 30.1268 142.489 32.1627 138.479 32.1627C132.869 32.1627 128.712 28.0174 128.712 22.5617C128.712 17.1795 132.721 13.1045 138.041 13.1045C143.36 13.1045 147.369 17.1762 147.369 22.5617L149.409 20.4523H126.528ZM52.1869 6.19455H58.0186V0.374451H52.1869V6.19455ZM40.815 36.3815H64.5737V31.581H40.815V36.3815ZM52.9138 13.6861V36.3815H58.0152V15.4345C58.0152 11.2157 56.049 8.88899 51.383 8.88899H40.815V13.6895H52.9138V13.6861ZM167.708 8.88564H156.048V13.6861H162.607L162.68 36.3815H167.782L167.708 21.1075C167.708 16.4508 170.843 13.6895 175.215 13.6895H179.807V8.88899H176.162C171.061 8.88899 168.582 10.7076 167.199 14.1274L166.469 15.946L167.708 16.1633V8.88564ZM97.229 8.88564H104.518V2.34012H109.619V8.88564H120.988V13.6861H109.619V31.581H120.988V36.3815H111.877C107.211 36.3815 104.514 33.326 104.514 29.1072V13.6861H97.2257V8.88564H97.229ZM156.045 36.3815H179.804V31.581H156.045V36.3815ZM36.8825 18.3429C36.8825 7.94293 29.1583 0.377792 18.5166 0.377792H0.807281V36.3849H18.5166C29.155 36.3815 36.8825 28.8164 36.8825 18.3429ZM83.5995 8.16021C79.0809 8.16021 75.5102 10.9248 74.1972 14.1241V8.88564H69.0957V36.3815H74.1972V22.4146C74.1972 17.9785 75.8016 13.2482 82.1424 13.2482C87.3913 13.2482 90.0877 16.3037 90.0877 22.7757V36.3782H95.1891V21.8296C95.1891 11.9411 89.5752 8.16021 83.5995 8.16021ZM196.86 37.1103C205.24 37.1103 211.437 30.9994 211.437 22.6353C211.437 14.2712 205.244 8.16021 196.86 8.16021C188.405 8.16021 182.282 14.2712 182.282 22.6353C182.282 30.9994 188.405 37.1103 196.86 37.1103ZM196.86 32.1627C191.541 32.1627 187.531 28.091 187.531 22.6353C187.531 17.1795 191.541 13.1078 196.86 13.1078C202.179 13.1078 206.188 17.1795 206.188 22.6353C206.188 28.091 202.179 32.1627 196.86 32.1627ZM6.1968 31.2902V5.46913H17.8568C25.7284 5.46913 31.3389 10.9248 31.3389 18.49C31.3389 25.908 25.7284 31.2935 17.8568 31.2935H6.1968V31.2902Z" fill="black"/>
</svg>

